<svg width="32" height="32" viewBox="0 0 32 32" fill="none" xmlns="http://www.w3.org/2000/svg">
<path d="M17.3708 2.66772C18.8713 2.6702 19.6317 2.67815 20.2888 2.69771L20.5476 2.70616C20.8465 2.71679 21.1415 2.73012 21.4971 2.74679C22.9159 2.81235 23.8837 3.03679 24.7337 3.36679C25.6125 3.70568 26.3548 4.16346 27.0959 4.90458C27.8359 5.64568 28.2937 6.39012 28.6337 7.26679C28.9625 8.11568 29.1871 9.08458 29.2537 10.5035C29.2696 10.859 29.2824 11.154 29.2929 11.4529L29.3013 11.7117C29.3208 12.3687 29.3297 13.1292 29.3325 14.6298L29.3336 15.624C29.3337 15.7454 29.3337 15.8708 29.3337 16.0001L29.3336 16.3762L29.3328 17.3705C29.3303 18.871 29.3224 19.6316 29.3028 20.2885L29.2943 20.5473C29.2837 20.8464 29.2704 21.1413 29.2537 21.4967C29.1881 22.9157 28.9625 23.8834 28.6337 24.7334C28.2948 25.6124 27.8359 26.3546 27.0959 27.0957C26.3548 27.8357 25.6092 28.2934 24.7337 28.6334C23.8837 28.9624 22.9159 29.1868 21.4971 29.2534C21.1415 29.2693 20.8465 29.2822 20.5476 29.2926L20.2888 29.301C19.6317 29.3206 18.8713 29.3294 17.3708 29.3324L16.3765 29.3334C16.2551 29.3334 16.1297 29.3334 16.0004 29.3334H15.6243L14.63 29.3325C13.1295 29.3301 12.369 29.3221 11.712 29.3025L11.4532 29.2941C11.1542 29.2834 10.8592 29.2701 10.5037 29.2534C9.08481 29.188 8.11814 28.9624 7.26704 28.6334C6.38925 28.2946 5.64592 27.8357 4.90481 27.0957C4.1637 26.3546 3.70704 25.609 3.36704 24.7334C3.03704 23.8834 2.8137 22.9157 2.74704 21.4967C2.7312 21.1413 2.71828 20.8464 2.70781 20.5473L2.69942 20.2885C2.67992 19.6316 2.67102 18.871 2.66814 17.3705L2.66797 14.6298C2.67045 13.1292 2.67838 12.3687 2.69794 11.7117L2.70641 11.4529C2.71704 11.154 2.73037 10.859 2.74704 10.5035C2.81258 9.08346 3.03704 8.11679 3.36704 7.26679C3.70592 6.38902 4.1637 5.64568 4.90481 4.90458C5.64592 4.16346 6.39037 3.70679 7.26704 3.36679C8.11704 3.03679 9.0837 2.81346 10.5037 2.74679C10.8592 2.73096 11.1542 2.71804 11.4532 2.70758L11.712 2.69919C12.369 2.67967 13.1295 2.67078 14.63 2.6679L17.3708 2.66772ZM16.0004 9.33346C12.3165 9.33346 9.3337 12.3195 9.3337 16.0001C9.3337 19.684 12.3197 22.6668 16.0004 22.6668C19.6843 22.6668 22.6671 19.6808 22.6671 16.0001C22.6671 12.3163 19.6809 9.33346 16.0004 9.33346ZM16.0004 12.0001C18.2096 12.0001 20.0004 13.7904 20.0004 16.0001C20.0004 18.2093 18.2101 20.0001 16.0004 20.0001C13.7912 20.0001 12.0004 18.21 12.0004 16.0001C12.0004 13.7909 13.7905 12.0001 16.0004 12.0001ZM23.0004 7.33346C22.0813 7.33346 21.3337 8.08 21.3337 8.99899C21.3337 9.91799 22.0803 10.6657 23.0004 10.6657C23.9193 10.6657 24.6671 9.91915 24.6671 8.99899C24.6671 8.08 23.9181 7.33231 23.0004 7.33346Z" fill="white"/>
</svg>
