<svg width="32" height="32" viewBox="0 0 32 32" fill="none" xmlns="http://www.w3.org/2000/svg">
<path d="M17.3708 2.66763C18.8713 2.67011 19.6317 2.67806 20.2888 2.69762L20.5476 2.70607C20.8465 2.7167 21.1415 2.73003 21.4971 2.7467C22.9159 2.81226 23.8837 3.0367 24.7337 3.3667C25.6125 3.70559 26.3548 4.16337 27.0959 4.90449C27.8359 5.64559 28.2937 6.39003 28.6337 7.2667C28.9625 8.11559 29.1871 9.08449 29.2537 10.5034C29.2696 10.8589 29.2824 11.1539 29.2929 11.4528L29.3013 11.7116C29.3208 12.3686 29.3297 13.1291 29.3325 14.6297L29.3336 15.6239C29.3337 15.7453 29.3337 15.8707 29.3337 16L29.3336 16.3761L29.3328 17.3704C29.3303 18.8709 29.3224 19.6315 29.3028 20.2884L29.2943 20.5472C29.2837 20.8463 29.2704 21.1412 29.2537 21.4967C29.1881 22.9156 28.9625 23.8833 28.6337 24.7333C28.2948 25.6123 27.8359 26.3545 27.0959 27.0956C26.3548 27.8356 25.6092 28.2933 24.7337 28.6333C23.8837 28.9623 22.9159 29.1867 21.4971 29.2533C21.1415 29.2692 20.8465 29.2821 20.5476 29.2925L20.2888 29.3009C19.6317 29.3205 18.8713 29.3293 17.3708 29.3323L16.3765 29.3333C16.2551 29.3333 16.1297 29.3333 16.0004 29.3333H15.6243L14.63 29.3324C13.1295 29.33 12.369 29.322 11.712 29.3024L11.4532 29.294C11.1542 29.2833 10.8592 29.27 10.5037 29.2533C9.08481 29.1879 8.11814 28.9623 7.26704 28.6333C6.38925 28.2945 5.64592 27.8356 4.90481 27.0956C4.1637 26.3545 3.70704 25.6089 3.36704 24.7333C3.03704 23.8833 2.8137 22.9156 2.74704 21.4967C2.7312 21.1412 2.71828 20.8463 2.70781 20.5472L2.69942 20.2884C2.67992 19.6315 2.67102 18.8709 2.66814 17.3704L2.66797 14.6297C2.67045 13.1291 2.67838 12.3686 2.69794 11.7116L2.70641 11.4528C2.71704 11.1539 2.73037 10.8589 2.74704 10.5034C2.81258 9.08337 3.03704 8.1167 3.36704 7.2667C3.70592 6.38893 4.1637 5.64559 4.90481 4.90449C5.64592 4.16337 6.39037 3.7067 7.26704 3.3667C8.11704 3.0367 9.0837 2.81337 10.5037 2.7467C10.8592 2.73087 11.1542 2.71795 11.4532 2.70749L11.712 2.6991C12.369 2.67958 13.1295 2.67069 14.63 2.66781L17.3708 2.66763ZM16.0004 9.33337C12.3165 9.33337 9.3337 12.3194 9.3337 16C9.3337 19.6839 12.3197 22.6667 16.0004 22.6667C19.6843 22.6667 22.6671 19.6807 22.6671 16C22.6671 12.3162 19.6809 9.33337 16.0004 9.33337ZM16.0004 12C18.2096 12 20.0004 13.7903 20.0004 16C20.0004 18.2092 18.2101 20 16.0004 20C13.7912 20 12.0004 18.2099 12.0004 16C12.0004 13.7908 13.7905 12 16.0004 12ZM23.0004 7.33337C22.0813 7.33337 21.3337 8.07991 21.3337 8.9989C21.3337 9.9179 22.0803 10.6656 23.0004 10.6656C23.9193 10.6656 24.6671 9.91906 24.6671 8.9989C24.6671 8.07991 23.9181 7.33222 23.0004 7.33337Z" fill="white"/>
</svg>
