<svg width="32" height="32" viewBox="0 0 32 32" fill="none" xmlns="http://www.w3.org/2000/svg">
  <path d="M32 6.075a13.142 13.142 0 01-3.771 1.034 6.586 6.586 0 002.887-3.631 13.166 13.166 0 01-4.169 1.594A6.563 6.563 0 0022.155 4c-3.632 0-6.574 2.941-6.574 6.573 0 .515.058 1.017.17 1.499A18.643 18.643 0 012.229 4.8a6.555 6.555 0 00-.89 3.305 6.566 6.566 0 002.922 5.468 6.537 6.537 0 01-2.978-.822v.082c0 3.18 2.261 5.834 5.264 6.438a6.585 6.585 0 01-2.972.113c.837 2.614 3.26 4.516 6.133 4.567A13.168 13.168 0 010 28.046a18.56 18.56 0 0010.064 2.95c12.076 0 18.682-10.003 18.682-18.682 0-.285-.006-.569-.019-.852A13.314 13.314 0 0032 6.075z" fill="white"/>
</svg>
