<svg width="32" height="32" viewBox="0 0 32 32" fill="none" xmlns="http://www.w3.org/2000/svg">
<path d="M16.0013 2.66667C23.3651 2.66667 29.3347 8.6362 29.3347 16C29.3347 23.3637 23.3651 29.3333 16.0013 29.3333C13.5561 29.3333 11.2647 28.6752 9.29448 27.5263L2.67354 29.3333L4.47616 22.7087C3.32658 20.7381 2.66797 18.446 2.66797 16C2.66797 8.6362 8.6375 2.66667 16.0013 2.66667ZM11.1898 9.74444C11.0172 9.75656 10.8481 9.7987 10.6941 9.87748C10.5786 9.93659 10.4713 10.022 10.3028 10.1812C10.1436 10.3314 10.0514 10.4626 9.95425 10.5892C9.46132 11.2309 9.19638 12.0187 9.2013 12.828C9.20398 13.4821 9.3739 14.1179 9.64225 14.7115C10.1864 15.9152 11.0838 17.1877 12.2692 18.3679C12.554 18.6513 12.833 18.9379 13.1338 19.2027C14.6051 20.4981 16.3584 21.4323 18.2543 21.9309C18.2543 21.9309 19.0009 22.0456 19.0119 22.0463C19.2592 22.0596 19.5061 22.0417 19.7537 22.0291C20.1421 22.0091 20.5213 21.904 20.8645 21.7212C21.0852 21.6037 21.1896 21.5453 21.3748 21.4285C21.3748 21.4285 21.4316 21.3901 21.5412 21.3085C21.7212 21.1744 21.8324 21.08 21.9821 20.9245C22.0925 20.8099 22.1875 20.6744 22.2608 20.5217C22.3651 20.3041 22.47 19.8888 22.5117 19.5439C22.5436 19.2804 22.534 19.1364 22.5305 19.0472C22.5248 18.9037 22.4063 18.7561 22.2764 18.6935L21.5011 18.3449C21.5011 18.3449 20.3417 17.8404 19.6327 17.5169C19.5588 17.4832 19.478 17.4676 19.3968 17.4627C19.2189 17.4517 19.0196 17.4981 18.8928 17.6317C18.8861 17.6291 18.7979 17.7053 17.8332 18.874C17.78 18.9376 17.6553 19.0759 17.4397 19.0629C17.4072 19.0607 17.3748 19.056 17.3432 19.0477C17.2559 19.0247 17.1708 18.9943 17.0876 18.9591C16.9227 18.8891 16.8648 18.8625 16.7521 18.814C15.9824 18.4777 15.276 18.0279 14.6516 17.4773C14.4841 17.3299 14.3284 17.1711 14.1679 17.0155C13.6076 16.4724 13.1489 15.8948 12.8077 15.3251C12.7891 15.294 12.7604 15.2491 12.7294 15.1988C12.6736 15.108 12.612 15 12.5927 14.9259C12.5432 14.7297 12.6746 14.5721 12.6746 14.5721C12.6746 14.5721 12.9992 14.2173 13.15 14.0244C13.295 13.8387 13.4203 13.6571 13.5 13.5276C13.6571 13.2751 13.7068 13.0142 13.6243 12.8128C13.2502 11.9009 12.8642 10.9938 12.4665 10.0919C12.388 9.91394 12.1545 9.78462 11.9421 9.7601C11.8702 9.75179 11.7983 9.74344 11.7261 9.7387C11.5474 9.72998 11.3683 9.7319 11.1898 9.74444Z" fill="white"/>
</svg>
