<svg width="90" height="47" viewBox="0 0 90 47" fill="none" xmlns="http://www.w3.org/2000/svg">
<path d="M3.98629 3.27209V7.82521H11.9607V11.0257H3.98629V17.3014H0V0.0734863H13.0189V3.27209H3.98629Z" fill="#FF0000"/>
<path d="M15.7261 3.42676H19.7142V17.3015H15.7261V3.42676Z" fill="#FF0000"/>
<path d="M29.9378 27.3262V31.2168H36.4969V33.9517H29.9378V39.3164H26.6582V24.5933H37.3674V27.3262H29.9378Z" fill="#001460"/>
<path d="M42.9403 28.2501C43.6396 27.9594 44.3915 27.8166 45.1488 27.8305V30.8598C44.7973 30.8322 44.5617 30.8175 44.4402 30.8175C43.536 30.8175 42.8274 31.08 42.3146 31.6052C41.8017 32.1303 41.5453 32.9192 41.5453 33.9719V39.309H38.3945V27.9906H41.4109V29.485C41.7934 28.9368 42.3238 28.5086 42.9403 28.2501Z" fill="#001460"/>
<path d="M55.0864 29.0818C55.9907 29.9149 56.4428 31.1738 56.4428 32.8583V39.3162H53.4871V37.9065C52.8921 38.958 51.7878 39.4837 50.1744 39.4837C49.4247 39.5019 48.6806 39.351 47.9972 39.042C47.4224 38.7863 46.9361 38.3662 46.5995 37.8347C46.2629 37.3032 46.0909 36.684 46.1053 36.0551C46.1053 35.0024 46.4863 34.1748 47.2482 33.5724C48.0101 32.97 49.188 32.6688 50.7818 32.6688H53.2921C53.2921 31.9535 53.0829 31.4013 52.6645 31.0124C52.2461 30.6235 51.6185 30.4308 50.7818 30.4345C50.1996 30.4352 49.6215 30.531 49.0702 30.7179C48.5516 30.8846 48.0681 31.1454 47.6439 31.4872L46.5102 29.1941C47.1567 28.7341 47.8795 28.3921 48.6451 28.1837C49.4779 27.9447 50.3404 27.8245 51.2069 27.8267C52.8878 27.8291 54.181 28.2475 55.0864 29.0818ZM52.3939 36.8869C52.8158 36.6207 53.131 36.215 53.2847 35.7404V34.5828H51.1186C49.8229 34.5828 49.1751 35.0245 49.1751 35.9079C49.1681 36.1003 49.2076 36.2916 49.2902 36.4656C49.3729 36.6396 49.4963 36.791 49.6499 36.9072C50.0324 37.1719 50.4922 37.3015 50.9566 37.2753C51.4627 37.2836 51.9609 37.149 52.3939 36.8869Z" fill="#001460"/>
<path d="M75.5462 29.0819C76.3486 29.915 76.7505 31.1665 76.7517 32.8363V39.3163H73.5936V33.3424C73.5936 32.4443 73.4144 31.7744 73.0562 31.3327C72.6979 30.891 72.1887 30.6702 71.5287 30.6702C71.1978 30.6547 70.8678 30.7138 70.5629 30.8432C70.258 30.9725 69.9862 31.1687 69.7674 31.4174C69.3355 31.9143 69.1196 32.6504 69.1196 33.6258V39.3071H65.9615V33.3424C65.9615 31.5609 65.2732 30.6702 63.8965 30.6702C63.5689 30.6562 63.2423 30.7161 62.9409 30.8454C62.6395 30.9747 62.3711 31.1702 62.1555 31.4174C61.7224 31.9143 61.5065 32.6504 61.5077 33.6258V39.3071H58.3496V27.9887H61.366V29.2936C61.7693 28.8178 62.2786 28.4434 62.8531 28.2004C63.4648 27.9421 64.1233 27.813 64.7873 27.8213C65.5101 27.811 66.2248 27.9732 66.8725 28.2942C67.4895 28.6066 68.008 29.0837 68.3705 29.6727C68.8133 29.0855 69.3935 28.616 70.06 28.3053C70.7602 27.9781 71.5251 27.8127 72.2979 27.8213C73.6598 27.8274 74.7426 28.2476 75.5462 29.0819Z" fill="#001460"/>
<path d="M89.2312 34.498H80.9917C81.1202 35.1636 81.4964 35.7555 82.0444 36.1544C82.6482 36.5767 83.373 36.7912 84.1093 36.7654C84.6245 36.7743 85.1367 36.685 85.6185 36.5022C86.0789 36.3113 86.4954 36.0282 86.8423 35.6704L88.5226 37.5641C87.4981 38.7874 86 39.399 84.0284 39.399C82.898 39.4245 81.7787 39.1716 80.769 38.6628C79.8573 38.1951 79.0986 37.476 78.5826 36.5906C78.061 35.6747 77.7953 34.6354 77.8134 33.5815C77.7985 32.5333 78.0607 31.4998 78.5734 30.5854C79.0605 29.7083 79.7818 28.9838 80.6568 28.4928C81.5561 28.0077 82.5609 27.7512 83.5828 27.7457C84.6046 27.7402 85.6121 27.9861 86.5166 28.4616C87.3742 28.9365 88.077 29.6482 88.541 30.5118C89.0484 31.4658 89.3019 32.5343 89.2772 33.6147C89.287 33.6576 89.2716 33.9521 89.2312 34.498ZM81.842 30.8596C81.3418 31.3066 81.0245 31.9227 80.9512 32.5896H86.316C86.2368 31.9293 85.9202 31.3203 85.4252 30.8762C84.9334 30.4454 84.2972 30.2161 83.6437 30.2339C82.9863 30.2116 82.3441 30.4346 81.842 30.8596Z" fill="#001460"/>
<path d="M44.0441 23.3657H38.7769L31.1853 17.8776L23.6176 23.3657H18.3633L31.1779 14.0662L44.0441 23.3657Z" fill="#001460"/>
<path d="M35.4861 43.6412H34.1978V42.929C34.2081 42.7988 34.1944 42.6678 34.1573 42.5425C34.1291 42.491 34.0678 42.4652 33.9733 42.4652C33.8666 42.4652 33.8003 42.4965 33.7709 42.5591C33.7341 42.6907 33.7198 42.8276 33.7285 42.964V44.8651C33.7199 44.996 33.7343 45.1274 33.7709 45.2534C33.7904 45.2861 33.8192 45.3123 33.8536 45.3286C33.888 45.345 33.9264 45.3509 33.9641 45.3454C34.0004 45.3502 34.0374 45.344 34.0702 45.3276C34.103 45.3112 34.1301 45.2853 34.1481 45.2534C34.1877 45.1142 34.2027 44.969 34.1923 44.8246V44.3111H35.4806V44.4694C35.4977 44.7741 35.461 45.0793 35.372 45.3712C35.2718 45.5782 35.1016 45.7431 34.8916 45.8368C34.6067 45.9801 34.2902 46.0491 33.9715 46.0374C33.6525 46.048 33.335 45.9903 33.0402 45.8681C32.9324 45.8257 32.8339 45.7624 32.7506 45.6818C32.6672 45.6013 32.6005 45.5051 32.5544 45.3988C32.4615 45.1083 32.421 44.8036 32.4347 44.4989V43.3026C32.4305 43.0806 32.4428 42.8585 32.4715 42.6382C32.5021 42.4784 32.5781 42.3308 32.6905 42.2131C32.8289 42.0651 33.0023 41.9543 33.1948 41.891C33.7444 41.7142 34.3388 41.737 34.8732 41.9554C35.0852 42.0418 35.258 42.2029 35.3591 42.4082C35.4504 42.68 35.4898 42.9666 35.4751 43.2529L35.4861 43.6412Z" fill="#001460"/>
<path d="M39.8262 44.2559C39.832 44.5472 39.8204 44.8385 39.7913 45.1283C39.7655 45.3027 39.6894 45.4658 39.5723 45.5976C39.4359 45.7471 39.2636 45.8593 39.0717 45.9233C38.835 46.0046 38.5857 46.0432 38.3355 46.0374C38.0932 46.0413 37.852 46.0052 37.6214 45.9307C37.427 45.8693 37.2519 45.7583 37.1135 45.6086C36.9916 45.4795 36.9114 45.3166 36.8834 45.1412C36.8532 44.8471 36.8409 44.5515 36.8466 44.2559V43.5547C36.8409 43.2629 36.8526 42.971 36.8816 42.6806C36.9076 42.5064 36.9844 42.3438 37.1024 42.2131C37.2378 42.0633 37.4096 41.951 37.6012 41.8874C37.8379 41.8062 38.0872 41.7676 38.3373 41.7733C38.579 41.7694 38.8197 41.8054 39.0496 41.88C39.2443 41.9418 39.4199 42.0527 39.5594 42.2021C39.6802 42.3318 39.7596 42.4945 39.7876 42.6695C39.8188 42.9635 39.8311 43.2592 39.8244 43.5547L39.8262 44.2559ZM38.538 42.9106C38.547 42.7866 38.5339 42.662 38.4993 42.5425C38.4841 42.5152 38.4611 42.4931 38.4332 42.479C38.4053 42.4649 38.3739 42.4595 38.3429 42.4634C38.3138 42.4611 38.2847 42.4658 38.2578 42.477C38.231 42.4882 38.2071 42.5056 38.1883 42.5278C38.1391 42.6484 38.1207 42.7793 38.1349 42.9088V44.8191C38.1253 44.9666 38.1371 45.1148 38.1699 45.259C38.1938 45.316 38.2472 45.3436 38.3337 45.3436C38.3682 45.348 38.4032 45.3411 38.4334 45.3238C38.4637 45.3065 38.4874 45.2799 38.5011 45.2479C38.5349 45.0977 38.5473 44.9434 38.538 44.7896V42.9106Z" fill="#001460"/>
<path d="M44.1161 41.8577V45.9507H42.9898L42.3199 44.0901V45.9507H41.2451V41.8577H42.3199L43.0413 43.6981V41.8577H44.1161Z" fill="#001460"/>
<path d="M48.2974 43.0983H47.103V42.7946C47.1135 42.7019 47.0975 42.6081 47.057 42.5241C47.0378 42.5032 47.0141 42.487 46.9876 42.4767C46.9611 42.4665 46.9325 42.4626 46.9043 42.4652C46.8694 42.4613 46.834 42.4665 46.8018 42.4804C46.7695 42.4943 46.7414 42.5163 46.7202 42.5444C46.6745 42.6147 46.6532 42.6981 46.6595 42.7818C46.6524 42.8892 46.676 42.9964 46.7276 43.0909C46.8288 43.2023 46.9549 43.288 47.0957 43.3412C47.668 43.621 48.0288 43.8529 48.1778 44.0332C48.3269 44.2136 48.4005 44.5044 48.4005 44.9056C48.4157 45.1273 48.3732 45.3492 48.2772 45.5497C48.1597 45.7146 47.9918 45.8367 47.7987 45.8975C47.5352 45.9959 47.2554 46.0434 46.9742 46.0374C46.6722 46.0458 46.3719 45.9906 46.0927 45.8755C45.8874 45.8023 45.7169 45.6553 45.6142 45.4632C45.5285 45.2366 45.4903 44.9948 45.5019 44.7528V44.486H46.6963V44.9829C46.6857 45.0843 46.7029 45.1867 46.746 45.2792C46.7691 45.3042 46.7979 45.3233 46.8299 45.3348C46.8619 45.3464 46.8963 45.35 46.93 45.3454C46.9652 45.347 47.0003 45.3402 47.0323 45.3254C47.0643 45.3107 47.0924 45.2885 47.1141 45.2608C47.161 45.1875 47.183 45.101 47.1766 45.0142C47.199 44.847 47.1561 44.6776 47.057 44.5412C46.8684 44.3999 46.6669 44.2767 46.4552 44.1731C46.2357 44.0597 46.0236 43.9325 45.8203 43.7921C45.7098 43.704 45.6216 43.5912 45.5626 43.4627C45.4876 43.2945 45.4523 43.1112 45.4596 42.9272C45.4417 42.6886 45.4922 42.4498 45.6049 42.2388C45.7209 42.0784 45.8855 41.9597 46.0743 41.9002C46.3253 41.8119 46.5904 41.7701 46.8564 41.7769C47.1469 41.7695 47.4362 41.815 47.7104 41.9113C47.9005 41.966 48.0657 42.085 48.1778 42.248C48.2691 42.4667 48.3082 42.7036 48.2919 42.94L48.2974 43.0983Z" fill="#001460"/>
<path d="M52.3369 41.8577V42.6785H51.5786V45.9507H50.2904V42.6785H49.5303V41.8577H52.3369Z" fill="#001460"/>
<path d="M53.5702 41.858H54.4812C54.8931 41.8474 55.3052 41.8671 55.7142 41.9169C55.9192 41.9501 56.1054 42.056 56.2388 42.2151C56.3933 42.4375 56.4649 42.7072 56.4412 42.977C56.4412 43.2954 56.3952 43.5089 56.2977 43.6193C56.1401 43.7524 55.9388 43.8226 55.7327 43.8162C55.9198 43.8377 56.0975 43.9103 56.2461 44.026C56.3198 44.0916 56.3761 44.1744 56.4099 44.2671C56.4399 44.4675 56.4503 44.6702 56.4412 44.8726V45.9511H55.2468V44.591C55.2623 44.4523 55.2408 44.3119 55.1842 44.1843C55.1437 44.1328 55.0333 44.107 54.8566 44.107V45.9474H53.5684L53.5702 41.858ZM54.8585 42.5592V43.4794C54.9622 43.4868 55.0662 43.4698 55.1621 43.4297C55.221 43.3966 55.2486 43.2898 55.2486 43.1095V42.885C55.2553 42.8388 55.2512 42.7918 55.2369 42.7475C55.2225 42.7031 55.1982 42.6627 55.1658 42.6292C55.0718 42.5761 54.9643 42.5518 54.8566 42.5592H54.8585Z" fill="#001460"/>
<path d="M60.803 41.8577V44.5943C60.8086 44.8127 60.7963 45.0313 60.7662 45.2477C60.7309 45.3941 60.6558 45.5279 60.549 45.6342C60.4185 45.773 60.2553 45.8768 60.0742 45.936C59.8495 46.008 59.6144 46.0422 59.3785 46.0372C59.1127 46.0418 58.8482 46.0007 58.5963 45.9157C58.4035 45.8557 58.2293 45.7474 58.0902 45.601C57.9851 45.486 57.916 45.3427 57.8915 45.1888C57.8643 44.8865 57.8539 44.583 57.8602 44.2796V41.8577H59.1485V44.9201C59.1412 45.0353 59.153 45.151 59.1834 45.2624C59.197 45.288 59.2179 45.3089 59.2435 45.3223C59.2691 45.3358 59.2982 45.3412 59.327 45.3379C59.3584 45.3423 59.3905 45.3366 59.4186 45.3218C59.4467 45.3069 59.4694 45.2835 59.4834 45.255C59.5151 45.1282 59.5269 44.9972 59.5184 44.8667V41.8577H60.803Z" fill="#001460"/>
<path d="M65.2435 43.6412H63.9553V42.929C63.9653 42.7987 63.951 42.6676 63.9129 42.5425C63.8853 42.491 63.8264 42.4652 63.7289 42.4652C63.6314 42.4652 63.5541 42.4965 63.5265 42.5591C63.4897 42.6907 63.4754 42.8276 63.4841 42.964V44.8651C63.4756 44.996 63.4899 45.1274 63.5265 45.2534C63.5541 45.3141 63.6185 45.3454 63.7105 45.3454C63.7469 45.3502 63.7838 45.3439 63.8166 45.3275C63.8494 45.3111 63.8765 45.2853 63.8945 45.2534C63.9341 45.1141 63.9491 44.969 63.9387 44.8246V44.3111H65.227V44.4694C65.2432 44.774 65.2064 45.0791 65.1184 45.3712C65.0182 45.5782 64.8481 45.7431 64.6381 45.8368C64.3531 45.9801 64.0366 46.0491 63.7179 46.0374C63.3983 46.0481 63.0802 45.9904 62.7848 45.8681C62.5678 45.7818 62.3937 45.6131 62.3008 45.3988C62.207 45.1085 62.1665 44.8036 62.1811 44.4989V43.3026C62.176 43.0805 62.1883 42.8584 62.2179 42.6382C62.2485 42.4788 62.3239 42.3313 62.4351 42.2131C62.5738 42.0655 62.7471 41.9548 62.9394 41.891C63.4896 41.7142 64.0846 41.737 64.6197 41.9554C64.8316 42.0418 65.0044 42.2029 65.1055 42.4082C65.1969 42.68 65.2362 42.9665 65.2215 43.2529L65.2435 43.6412Z" fill="#001460"/>
<path d="M69.2335 41.8577V42.6785H68.4697V45.9507H67.1815V42.6785H66.4214V41.8577H69.2335Z" fill="#001460"/>
<path d="M71.7531 41.8577V45.9507H70.4648V41.8577H71.7531Z" fill="#001460"/>
<path d="M76.148 44.2559C76.1528 44.5472 76.1412 44.8384 76.113 45.1283C76.0874 45.3031 76.0105 45.4664 75.8922 45.5976C75.7568 45.7474 75.585 45.8597 75.3934 45.9233C75.1567 46.0045 74.9075 46.0431 74.6573 46.0374C74.4156 46.0413 74.1749 46.0053 73.945 45.9307C73.7503 45.8689 73.5747 45.7579 73.4352 45.6086C73.3138 45.4794 73.2342 45.3164 73.207 45.1412C73.1758 44.8472 73.1635 44.5515 73.1702 44.2559V43.5548C73.1645 43.2629 73.1762 42.971 73.2052 42.6806C73.2297 42.5063 73.306 42.3435 73.4242 42.2131C73.5602 42.0632 73.7326 41.951 73.9248 41.8874C74.1615 41.8061 74.4107 41.7675 74.6609 41.7733C74.9032 41.7694 75.1445 41.8055 75.375 41.88C75.5692 41.9418 75.7442 42.0528 75.883 42.2021C76.0049 42.3312 76.0851 42.4941 76.113 42.6695C76.1432 42.9636 76.1555 43.2592 76.1498 43.5548L76.148 44.2559ZM74.8597 42.9106C74.8687 42.7866 74.8556 42.662 74.821 42.5425C74.8054 42.5153 74.782 42.4932 74.7538 42.4791C74.7257 42.4651 74.694 42.4596 74.6628 42.4634C74.6341 42.4615 74.6053 42.4663 74.5787 42.4774C74.5522 42.4886 74.5287 42.5059 74.51 42.5278C74.4598 42.6481 74.4414 42.7793 74.4567 42.9088V44.8191C74.4471 44.9666 74.4589 45.1148 74.4916 45.259C74.5137 45.316 74.5689 45.3436 74.6554 45.3436C74.6899 45.348 74.725 45.3411 74.7552 45.3238C74.7854 45.3065 74.8092 45.2799 74.8229 45.2479C74.8557 45.0975 74.8681 44.9434 74.8597 44.7897V42.9106Z" fill="#001460"/>
<path d="M80.4378 41.8577V45.9507H79.3096L78.6416 44.0901V45.9507H77.5649V41.8577H78.6416L79.363 43.6981V41.8577H80.4378Z" fill="#001460"/>
<path d="M22.7212 0L39.9509 12.7723V17.3751L22.7212 4.60466V0Z" fill="#FF0000"/>
<path d="M39.9509 0L22.7212 12.7723V17.3751L39.9509 4.60466V0Z" fill="#FF0000"/>
<path d="M15.728 0.0734863H19.7143V2.90217" fill="#FF0000"/>
</svg>
